<svg xmlns="http://www.w3.org/2000/svg" viewBox="0 0 48 48" role="img" aria-labelledby="title">
  <title id="title">Flutterwave</title>
  <rect width="48" height="48" rx="12" fill="#FFF1E6"/>
  <path fill="#F5A623" d="M25.8 8.5c5.8 1.7 9.7 6.1 10.6 11.9-4.8.7-8.7-.6-11.7-3.8-2.1-2.3-1.7-5.3 1.1-8.1Z"/>
  <path fill="#F26A21" d="M21.8 16.1c3.5 1.5 5.5 4.3 5.9 8.2-3.7.5-6.6-.4-8.7-2.7-1.7-1.9-1-4.1 2.8-5.5Z"/>
  <path fill="#F5A623" d="M11.2 20.1c6.4.1 11.4 2.5 15 7.1 2.7 3.5 2.4 7.7-.9 12.3-7.2-1.7-12.3-5.8-15.2-12.2-1.2-2.7-.8-5.1 1.1-7.2Z"/>
  <circle cx="31.6" cy="29.2" r="5.8" fill="#F26A21"/>
</svg>
